<?xml version="1.0" standalone="no"?><!DOCTYPE svg PUBLIC "-//W3C//DTD SVG 1.1//EN" "http://www.w3.org/Graphics/SVG/1.1/DTD/svg11.dtd"><svg t="1588232986908" class="icon" viewBox="0 0 1072 1024" version="1.1" xmlns="http://www.w3.org/2000/svg" p-id="2902" xmlns:xlink="http://www.w3.org/1999/xlink" width="209.375" height="200"><defs><style type="text/css"></style></defs><path d="M189.976381 325.729524c-13.848381-105.959619 9.167238-181.589333 63.049143-214.893714 55.53981-34.182095 136.679619-16.530286 226.596571 49.834666 85.528381 62.415238 172.373333 160.719238 241.956572 277.504l12.092952 20.967619c65.194667 112.932571 108.934095 229.61981 121.612191 329.825524 13.848381 105.959619-9.118476 181.589333-63.049143 214.844952-55.491048 34.230857-136.679619 16.579048-225.670096-48.176761-85.528381-62.415238-172.324571-160.719238-241.956571-277.504l-12.092952-20.96762C246.393905 542.622476 202.703238 425.935238 189.976381 325.729524zM678.278095 470.454857c-64.365714-104.594286-139.459048-192.902095-215.478857-248.198095-69.485714-51.053714-128.975238-67.291429-166.570667-45.641143-35.206095 22.332952-49.347048 81.13981-38.66819 162.084571 12.678095 87.868952 51.346286 193.097143 110.104381 294.912l10.532571 18.236953c64.365714 104.594286 139.459048 192.902095 215.527619 248.198095 69.485714 51.053714 128.975238 67.291429 166.570667 45.641143 35.206095-22.332952 49.347048-81.13981 38.668191-162.084571-11.800381-86.357333-50.468571-191.634286-110.153143-294.912l-10.532572-18.236953z" p-id="2903" fill="#1296db"></path><path d="M541.257143 789.211429h-24.185905c-135.94819-1.852952-264.484571-27.940571-361.325714-70.753524-100.547048-44.714667-156.42819-106.154667-154.575238-171.349334 1.852952-63.341714 55.881143-121.07581 154.575238-162.035809 93.135238-39.107048 216.015238-59.587048 346.404571-59.587048h24.234667c135.94819 1.852952 264.43581 27.940571 361.325714 70.753524 102.4 44.714667 158.281143 106.154667 156.428191 171.349333-1.852952 63.341714-55.881143 121.07581-154.575238 162.03581-93.135238 39.107048-216.015238 59.587048-348.306286 59.587048z m-42.22781-410.087619c-119.271619 0-229.766095 19.114667-310.467047 52.077714-75.434667 31.207619-119.271619 72.899048-121.027048 114.541714 0 43.398095 43.885714 86.79619 122.782476 121.465905 85.967238 38.180571 199.92381 59.001905 322.755048 62.512762h21.016381c117.51619 0 228.010667-19.114667 310.467047-52.077715 75.434667-31.207619 119.271619-72.899048 121.027048-114.541714 0-43.398095-43.885714-86.79619-122.782476-121.465905-85.967238-38.180571-199.92381-59.001905-322.755048-62.512761h-21.016381z m145.212953-268.190477a110.104381 110.104381 0 0 0 109.860571 109.909334 110.104381 110.104381 0 0 0 109.909333-109.909334A110.104381 110.104381 0 0 0 754.102857 1.072762c-61.44 0-109.860571 48.420571-109.860571 109.860571" p-id="2904" fill="#1296db"></path><path d="M790.28419 267.410286c1.657905 21.162667 0.975238 44.958476-2.486857 71.289904-12.678095 87.868952-51.395048 193.097143-110.153143 294.912l-10.532571 18.236953c-64.365714 104.594286-139.459048 192.902095-215.478857 248.246857-69.534476 51.004952-129.024 67.291429-166.570667 45.592381-35.206095-22.332952-49.347048-81.13981-38.716952-162.084571 11.800381-86.357333 50.517333-191.634286 110.153143-294.912l10.532571-18.188191c64.365714-104.594286 139.459048-192.950857 215.527619-248.295619 12.141714-8.97219 24.771048-17.310476 37.839238-24.917333l-30.72-53.150477a478.841905 478.841905 0 0 0-24.039619 16.579048C480.109714 223.085714 393.264762 321.340952 323.779048 438.125714l-12.141715 20.967619c-65.194667 112.932571-108.885333 229.61981-121.563428 329.825524-13.897143 105.959619 9.118476 181.589333 63.000381 214.844953 55.53981 34.230857 136.679619 16.579048 225.670095-48.176762 85.528381-62.415238 172.373333-160.719238 241.956571-277.504l12.092953-20.967619c66.121143-114.541714 109.860571-231.228952 122.538666-331.434667 3.657143-27.794286 4.583619-53.248 3.267048-76.653714l-68.266667 18.334476z" p-id="2905" fill="#1296db"></path></svg>